<?xml version="1.0" encoding="UTF-8"?>
<svg width="44px" height="36px" viewBox="0 0 44 36" version="1.1" xmlns="http://www.w3.org/2000/svg" xmlns:xlink="http://www.w3.org/1999/xlink">
    <!-- Generator: Sketch 50.2 (55047) - http://www.bohemiancoding.com/sketch -->
    <title>desktop2</title>
    <desc>Created with Sketch.</desc>
    <defs>
        <path d="M38.3333333,3.5 L7.66666667,3.5 C4.40833333,3.5 1.91666667,5.775 1.91666667,8.75 L1.91666667,26.25 C1.91666667,29.225 4.40833333,31.5 7.66666667,31.5 L21.0833333,31.5 L21.0833333,35 L15.3333333,35 C14.1833333,35 13.4166667,35.7 13.4166667,36.75 C13.4166667,37.8 14.1833333,38.5 15.3333333,38.5 L30.6666667,38.5 C31.8166667,38.5 32.5833333,37.8 32.5833333,36.75 C32.5833333,35.7 31.8166667,35 30.6666667,35 L24.9166667,35 L24.9166667,31.5 L38.3333333,31.5 C41.5916667,31.5 44.0833333,29.225 44.0833333,26.25 L44.0833333,8.75 C44.0833333,5.775 41.5916667,3.5 38.3333333,3.5 Z M40.25,26.25 C40.25,27.3 39.4833333,28 38.3333333,28 L7.66666667,28 C6.51666667,28 5.75,27.3 5.75,26.25 L5.75,8.75 C5.75,7.7 6.51666667,7 7.66666667,7 L38.3333333,7 C39.4833333,7 40.25,7.7 40.25,8.75 L40.25,26.25 Z" id="path-1"></path>
    </defs>
    <g id="Page-1" stroke="none" stroke-width="1" fill="none" fill-rule="evenodd">
        <g id="Signup-4-Copy" transform="translate(-92.000000, -82.000000)">
            <g id="icon-/-monitor" transform="translate(91.000000, 79.000000)">
                <mask id="mask-2" fill="white">
                    <use xlink:href="#path-1"></use>
                </mask>
                <use id="Mask" fill="#000000" fill-rule="nonzero" xlink:href="#path-1"></use>
                <g id="color-/-black" mask="url(#mask-2)" fill="#333333" fill-rule="evenodd">
                    <rect id="Shape" x="0" y="0" width="46" height="42"></rect>
                </g>
            </g>
        </g>
    </g>
</svg>