<?xml version="1.0" encoding="UTF-8"?>
<svg width="27px" height="33px" viewBox="0 0 27 33" version="1.1" xmlns="http://www.w3.org/2000/svg" xmlns:xlink="http://www.w3.org/1999/xlink">
    <!-- Generator: Sketch 50.2 (55047) - http://www.bohemiancoding.com/sketch -->
    <title>tablet</title>
    <desc>Created with Sketch.</desc>
    <defs>
        <path d="M26.25,1.45833333 L8.75,1.45833333 C6.27083333,1.45833333 4.375,3.35416667 4.375,5.83333333 L4.375,29.1666667 C4.375,31.6458333 6.27083333,33.5416667 8.75,33.5416667 L26.25,33.5416667 C28.7291667,33.5416667 30.625,31.6458333 30.625,29.1666667 L30.625,5.83333333 C30.625,3.35416667 28.7291667,1.45833333 26.25,1.45833333 Z M27.7083333,29.1666667 C27.7083333,30.0416667 27.125,30.625 26.25,30.625 L8.75,30.625 C7.875,30.625 7.29166667,30.0416667 7.29166667,29.1666667 L7.29166667,5.83333333 C7.29166667,4.95833333 7.875,4.375 8.75,4.375 L26.25,4.375 C27.125,4.375 27.7083333,4.95833333 27.7083333,5.83333333 L27.7083333,29.1666667 Z M18.5208333,25.2291667 C18.8125,25.5208333 18.9583333,25.9583333 18.9583333,26.25 C18.9583333,26.6875 18.8125,26.9791667 18.5208333,27.2708333 C18.2291667,27.5625 17.9375,27.7083333 17.5,27.7083333 C17.3541667,27.7083333 17.0625,27.7083333 16.9166667,27.5625 C16.7708333,27.5625 16.625,27.4166667 16.4791667,27.2708333 C16.1875,26.9791667 16.0416667,26.6875 16.0416667,26.25 C16.0416667,26.1041667 16.0416667,25.8125 16.1875,25.6666667 C16.3333333,25.5208333 16.3333333,25.375 16.4791667,25.2291667 C17.0625,24.6458333 17.9375,24.6458333 18.5208333,25.2291667 Z" id="path-1"></path>
    </defs>
    <g id="Page-1" stroke="none" stroke-width="1" fill="none" fill-rule="evenodd">
        <g id="Signup-4-Copy" transform="translate(-203.000000, -84.000000)">
            <g id="icon-/-tablet" transform="translate(199.000000, 83.000000)">
                <mask id="mask-2" fill="white">
                    <use xlink:href="#path-1"></use>
                </mask>
                <use id="Mask" fill="#000000" fill-rule="nonzero" xlink:href="#path-1"></use>
                <g id="color-/-black" mask="url(#mask-2)" fill="#333333" fill-rule="evenodd">
                    <rect id="Shape" x="0" y="0" width="35" height="35"></rect>
                </g>
            </g>
        </g>
    </g>
</svg>