<?xml version="1.0" encoding="UTF-8"?>
<svg width="14px" height="14px" viewBox="0 0 14 14" version="1.1" xmlns="http://www.w3.org/2000/svg" xmlns:xlink="http://www.w3.org/1999/xlink">
    <!-- Generator: Sketch 50.2 (55047) - http://www.bohemiancoding.com/sketch -->
    <title>x</title>
    <desc>Created with Sketch.</desc>
    <defs>
        <path d="M18.7,17.3 C19.1,17.7 19.1,18.3 18.7,18.7 C18.5,18.9 18.3,19 18,19 C17.7,19 17.5,18.9 17.3,18.7 L12,13.4 L6.7,18.7 C6.5,18.9 6.3,19 6,19 C5.7,19 5.5,18.9 5.3,18.7 C4.9,18.3 4.9,17.7 5.3,17.3 L10.6,12 L5.3,6.7 C4.9,6.3 4.9,5.7 5.3,5.3 C5.7,4.9 6.3,4.9 6.7,5.3 L12,10.6 L17.3,5.3 C17.7,4.9 18.3,4.9 18.7,5.3 C19.1,5.7 19.1,6.3 18.7,6.7 L13.4,12 L18.7,17.3 Z" id="path-1"></path>
    </defs>
    <g id="Page-1" stroke="none" stroke-width="1" fill="none" fill-rule="evenodd">
        <g id="Signup-4-Copy" transform="translate(-1331.000000, -93.000000)">
            <g id="icon-/-x" transform="translate(1326.000000, 88.000000)">
                <mask id="mask-2" fill="white">
                    <use xlink:href="#path-1"></use>
                </mask>
                <use id="Mask" fill="#000000" fill-rule="nonzero" xlink:href="#path-1"></use>
                <g id="color-/-black" mask="url(#mask-2)" fill="#333333" fill-rule="evenodd">
                    <rect id="Shape" x="0" y="0" width="24" height="24"></rect>
                </g>
            </g>
        </g>
    </g>
</svg>